<svg id="Layer_1" data-name="Layer 1" xmlns="http://www.w3.org/2000/svg" xmlns:xlink="http://www.w3.org/1999/xlink" width="47.39mm" height="9.25mm" viewBox="0 0 134.34 26.22">
  <defs>
    <style>
      .cls-1 {
        fill: #59595b;
      }

      .cls-2 {
        fill: url(#New_Gradient_Swatch_1);
      }

      .cls-3 {
        fill: url(#linear-gradient);
      }

      .cls-4 {
        fill: url(#linear-gradient-2);
      }

      .cls-5 {
        fill: url(#linear-gradient-3);
      }

      .cls-6 {
        fill: url(#linear-gradient-4);
      }

      .cls-7 {
        fill: url(#linear-gradient-5);
      }

      .cls-8 {
        fill: url(#linear-gradient-6);
      }

      .cls-9 {
        fill: url(#linear-gradient-7);
      }

      .cls-10 {
        fill: url(#linear-gradient-8);
      }

      .cls-11 {
        fill: url(#linear-gradient-9);
      }

      .cls-12 {
        fill: url(#linear-gradient-10);
      }

      .cls-13 {
        fill: url(#linear-gradient-11);
      }

      .cls-14 {
        fill: url(#linear-gradient-12);
      }

      .cls-15 {
        fill: url(#linear-gradient-13);
      }

      .cls-16 {
        fill: url(#linear-gradient-14);
      }

      .cls-17 {
        fill: url(#linear-gradient-15);
      }

      .cls-18 {
        fill: url(#linear-gradient-16);
      }

      .cls-19 {
        fill: url(#New_Gradient_Swatch_9);
      }

      .cls-20 {
        fill: url(#linear-gradient-17);
      }

      .cls-21 {
        fill: url(#linear-gradient-18);
      }

      .cls-22 {
        fill: url(#linear-gradient-19);
      }

      .cls-23 {
        fill: url(#linear-gradient-20);
      }

      .cls-24 {
        fill: url(#linear-gradient-21);
      }

      .cls-25 {
        fill: url(#linear-gradient-22);
      }

      .cls-26 {
        fill: url(#linear-gradient-23);
      }

      .cls-27 {
        fill: url(#linear-gradient-24);
      }

      .cls-28 {
        fill: url(#linear-gradient-25);
      }

      .cls-29 {
        fill: url(#New_Gradient_Swatch_8);
      }

      .cls-30 {
        fill: url(#linear-gradient-26);
      }

      .cls-31 {
        fill: url(#linear-gradient-27);
      }

      .cls-32 {
        fill: url(#linear-gradient-28);
      }

      .cls-33 {
        fill: url(#linear-gradient-29);
      }

      .cls-34 {
        fill: url(#linear-gradient-30);
      }

      .cls-35 {
        fill: url(#radial-gradient);
      }
    </style>
    <radialGradient id="New_Gradient_Swatch_1" data-name="New Gradient Swatch 1" cx="-156.67" cy="-244.25" r="29.95" gradientTransform="translate(81.14 119.4) scale(0.43)" gradientUnits="userSpaceOnUse">
      <stop offset="0.64" stop-color="#2b3b8f"/>
      <stop offset="0.82" stop-color="#2b3a8d"/>
      <stop offset="0.89" stop-color="#2a3786"/>
      <stop offset="0.94" stop-color="#2a317a"/>
      <stop offset="0.99" stop-color="#292969"/>
      <stop offset="1" stop-color="#282561"/>
    </radialGradient>
    <linearGradient id="linear-gradient" x1="12.98" y1="2.01" x2="18" y2="2.01" gradientUnits="userSpaceOnUse">
      <stop offset="0" stop-color="#1c76bc"/>
      <stop offset="0.34" stop-color="#205da0"/>
      <stop offset="1" stop-color="#282561"/>
    </linearGradient>
    <linearGradient id="linear-gradient-2" x1="21.3" y1="0.19" x2="18.86" y2="4.82" gradientUnits="userSpaceOnUse">
      <stop offset="0" stop-color="#7bd1f6"/>
      <stop offset="0.12" stop-color="#77cdf3"/>
      <stop offset="0.26" stop-color="#6ac0eb"/>
      <stop offset="0.4" stop-color="#54acde"/>
      <stop offset="0.54" stop-color="#368fcc"/>
      <stop offset="0.64" stop-color="#1c76bc"/>
      <stop offset="1" stop-color="#2b3b8f"/>
    </linearGradient>
    <linearGradient id="linear-gradient-3" x1="22.17" y1="6.49" x2="25.08" y2="6.49" xlink:href="#linear-gradient"/>
    <linearGradient id="linear-gradient-4" x1="24.31" y1="10.96" x2="27.37" y2="8.28" gradientUnits="userSpaceOnUse">
      <stop offset="0" stop-color="#2da9e0"/>
      <stop offset="0.2" stop-color="#248dcd"/>
      <stop offset="0.37" stop-color="#1e7cc0"/>
      <stop offset="0.5" stop-color="#1c76bc"/>
      <stop offset="1" stop-color="#2b3b8f"/>
    </linearGradient>
    <linearGradient id="linear-gradient-5" x1="22.43" y1="15.29" x2="26.11" y2="15.29" xlink:href="#linear-gradient"/>
    <linearGradient id="linear-gradient-6" x1="22.43" y1="19.35" x2="25.39" y2="19.35" gradientUnits="userSpaceOnUse">
      <stop offset="0" stop-color="#2da9e0"/>
      <stop offset="0.29" stop-color="#248ecd"/>
      <stop offset="0.5" stop-color="#1c76bc"/>
      <stop offset="1" stop-color="#2b3b8f"/>
    </linearGradient>
    <linearGradient id="linear-gradient-7" x1="16.19" y1="23.58" x2="20.33" y2="23.58" gradientUnits="userSpaceOnUse">
      <stop offset="0" stop-color="#1c76bc"/>
      <stop offset="0.25" stop-color="#248ecd"/>
      <stop offset="0.59" stop-color="#2da9e0"/>
      <stop offset="0.74" stop-color="#1bade6"/>
      <stop offset="1" stop-color="#00b4f0"/>
    </linearGradient>
    <linearGradient id="linear-gradient-8" x1="13.14" y1="24.14" x2="18.47" y2="24.14" xlink:href="#linear-gradient"/>
    <linearGradient id="linear-gradient-9" x1="7.75" y1="24.06" x2="12.19" y2="24.06" xlink:href="#linear-gradient-2"/>
    <linearGradient id="linear-gradient-10" x1="4.71" y1="23.51" x2="9.27" y2="23.51" xlink:href="#linear-gradient-6"/>
    <linearGradient id="linear-gradient-11" x1="3.06" y1="21.23" x2="2.4" y2="17.35" gradientUnits="userSpaceOnUse">
      <stop offset="0" stop-color="#00b4f0"/>
      <stop offset="0.26" stop-color="#1bade6"/>
      <stop offset="0.41" stop-color="#2da9e0"/>
      <stop offset="0.75" stop-color="#248ecd"/>
      <stop offset="1" stop-color="#1c76bc"/>
    </linearGradient>
    <linearGradient id="linear-gradient-12" x1="1.72" y1="16.13" x2="-0.58" y2="11.98" gradientUnits="userSpaceOnUse">
      <stop offset="0" stop-color="#2b3b8f"/>
      <stop offset="0.36" stop-color="#1c76bc"/>
      <stop offset="0.69" stop-color="#0c98d9"/>
      <stop offset="1" stop-color="#00b4f0"/>
    </linearGradient>
    <linearGradient id="linear-gradient-13" x1="2.56" y1="8.49" x2="-0.07" y2="13.05" xlink:href="#linear-gradient-2"/>
    <linearGradient id="linear-gradient-14" x1="1.18" y1="6.57" x2="3.98" y2="6.57" xlink:href="#linear-gradient"/>
    <linearGradient id="linear-gradient-15" x1="3.8" y1="2.52" x2="9.37" y2="2.52" xlink:href="#linear-gradient-2"/>
    <linearGradient id="linear-gradient-16" x1="9.88" y1="0.89" x2="13.45" y2="3.95" gradientUnits="userSpaceOnUse">
      <stop offset="0" stop-color="#282561"/>
      <stop offset="0.66" stop-color="#205da0"/>
      <stop offset="1" stop-color="#1c76bc"/>
    </linearGradient>
    <linearGradient id="New_Gradient_Swatch_9" data-name="New Gradient Swatch 9" x1="13.3" y1="1.09" x2="12.36" y2="17.88" gradientUnits="userSpaceOnUse">
      <stop offset="0" stop-color="#fffefe"/>
      <stop offset="0.09" stop-color="#e3f4fc"/>
      <stop offset="0.28" stop-color="#9ddbf8"/>
      <stop offset="0.3" stop-color="#94d8f7"/>
      <stop offset="0.41" stop-color="#78cbf1"/>
      <stop offset="0.65" stop-color="#32abe1"/>
      <stop offset="0.66" stop-color="#2da9e0"/>
      <stop offset="0.85" stop-color="#248ecd"/>
      <stop offset="1" stop-color="#1c76bc"/>
    </linearGradient>
    <linearGradient id="linear-gradient-17" x1="18.61" y1="1.82" x2="25.11" y2="17.95" xlink:href="#New_Gradient_Swatch_9"/>
    <linearGradient id="linear-gradient-18" x1="15.29" y1="13.54" x2="23.57" y2="12.65" gradientUnits="userSpaceOnUse">
      <stop offset="0" stop-color="#1c76bc"/>
      <stop offset="0.25" stop-color="#248ecd"/>
      <stop offset="0.59" stop-color="#2da9e0"/>
      <stop offset="0.61" stop-color="#32abe1"/>
      <stop offset="0.88" stop-color="#78cbf1"/>
      <stop offset="1" stop-color="#94d8f7"/>
    </linearGradient>
    <linearGradient id="linear-gradient-19" x1="22.28" y1="17.69" x2="19.02" y2="21.66" xlink:href="#linear-gradient-16"/>
    <linearGradient id="linear-gradient-20" x1="13.32" y1="20.64" x2="13.41" y2="28.39" gradientUnits="userSpaceOnUse">
      <stop offset="0" stop-color="#7bd1f6"/>
      <stop offset="0.1" stop-color="#77cdf3"/>
      <stop offset="0.2" stop-color="#6ac0eb"/>
      <stop offset="0.31" stop-color="#54acde"/>
      <stop offset="0.41" stop-color="#368fcc"/>
      <stop offset="0.49" stop-color="#1c76bc"/>
      <stop offset="1" stop-color="#2b3b8f"/>
    </linearGradient>
    <linearGradient id="linear-gradient-21" x1="2.95" y1="18.6" x2="8.51" y2="21.57" xlink:href="#linear-gradient"/>
    <linearGradient id="linear-gradient-22" x1="0.08" y1="13" x2="5.92" y2="13" xlink:href="#linear-gradient-2"/>
    <linearGradient id="linear-gradient-23" x1="8.52" y1="6.45" x2="2.42" y2="6.46" gradientUnits="userSpaceOnUse">
      <stop offset="0" stop-color="#2b3b8f"/>
      <stop offset="0.36" stop-color="#1c76bc"/>
      <stop offset="0.78" stop-color="#57b3e3"/>
      <stop offset="1" stop-color="#71cff5"/>
    </linearGradient>
    <linearGradient id="linear-gradient-24" x1="8.1" y1="5.69" x2="13.11" y2="5.69" xlink:href="#linear-gradient-6"/>
    <linearGradient id="linear-gradient-25" x1="5.91" y1="10.17" x2="13.2" y2="10.17" gradientUnits="userSpaceOnUse">
      <stop offset="0" stop-color="#94d8f7"/>
      <stop offset="0.24" stop-color="#78cbf1"/>
      <stop offset="0.74" stop-color="#32abe1"/>
      <stop offset="0.78" stop-color="#2da9e0"/>
      <stop offset="0.9" stop-color="#248ecd"/>
      <stop offset="1" stop-color="#1c76bc"/>
    </linearGradient>
    <linearGradient id="New_Gradient_Swatch_8" data-name="New Gradient Swatch 8" x1="5.19" y1="15.31" x2="7.33" y2="19.43" gradientUnits="userSpaceOnUse">
      <stop offset="0" stop-color="#94d8f7"/>
      <stop offset="0.12" stop-color="#78cbf1"/>
      <stop offset="0.39" stop-color="#32abe1"/>
      <stop offset="0.41" stop-color="#2da9e0"/>
      <stop offset="0.75" stop-color="#248ecd"/>
      <stop offset="1" stop-color="#1c76bc"/>
    </linearGradient>
    <linearGradient id="linear-gradient-26" x1="8" y1="19.97" x2="12.88" y2="19.97" xlink:href="#linear-gradient-11"/>
    <linearGradient id="linear-gradient-27" x1="13.7" y1="20.07" x2="18.59" y2="20.07" xlink:href="#linear-gradient-11"/>
    <linearGradient id="linear-gradient-28" x1="22.16" y1="13.94" x2="18.14" y2="18.25" gradientUnits="userSpaceOnUse">
      <stop offset="0" stop-color="#2b3b8f"/>
      <stop offset="0.36" stop-color="#1c76bc"/>
      <stop offset="0.46" stop-color="#368fcc"/>
      <stop offset="0.6" stop-color="#54acde"/>
      <stop offset="0.74" stop-color="#6ac0eb"/>
      <stop offset="0.88" stop-color="#77cdf3"/>
      <stop offset="1" stop-color="#7bd1f6"/>
    </linearGradient>
    <linearGradient id="linear-gradient-29" x1="18.9" y1="7.61" x2="21.98" y2="11.63" xlink:href="#linear-gradient-12"/>
    <linearGradient id="linear-gradient-30" x1="13.21" y1="5.81" x2="19.92" y2="5.81" xlink:href="#linear-gradient-2"/>
    <radialGradient id="radial-gradient" cx="-160.66" cy="-238.08" r="29.96" gradientTransform="translate(81.14 119.4) scale(0.43)" gradientUnits="userSpaceOnUse">
      <stop offset="0" stop-color="#fff"/>
      <stop offset="0.1" stop-color="#f7fcff"/>
      <stop offset="0.24" stop-color="#e2f4fd"/>
      <stop offset="0.38" stop-color="#c9ebfc"/>
      <stop offset="0.43" stop-color="#c1e8fb"/>
      <stop offset="0.51" stop-color="#ace2fa"/>
      <stop offset="0.6" stop-color="#8cd7f8"/>
      <stop offset="0.77" stop-color="#47b6e7"/>
      <stop offset="0.83" stop-color="#2da9e0"/>
      <stop offset="0.9" stop-color="#2ca7de"/>
      <stop offset="0.94" stop-color="#2a9fd9"/>
      <stop offset="0.97" stop-color="#2592d0"/>
      <stop offset="0.99" stop-color="#1f7fc3"/>
      <stop offset="1" stop-color="#1c75bc"/>
    </radialGradient>
  </defs>
  <title>enc-logo</title>
  <g>
    <g>
      <path class="cls-1" d="M39.28,10.88a3.5,3.5,0,0,1-.19,1.22,1.66,1.66,0,0,1-.71.84,3.88,3.88,0,0,1-1.4.47,14,14,0,0,1-2.28.15H32.05a3.43,3.43,0,0,0,1,2.21,3.34,3.34,0,0,0,2.41.86,5.2,5.2,0,0,0,2-.33,4.13,4.13,0,0,0,1.24-.78h0.1v0.81a1.67,1.67,0,0,1-.9,1.42,5.15,5.15,0,0,1-2.73.57,5,5,0,0,1-2-.4,4.81,4.81,0,0,1-1.6-1.12,5,5,0,0,1-1-1.7,6.05,6.05,0,0,1-.37-2.16,7,7,0,0,1,.38-2.38,5.58,5.58,0,0,1,1.06-1.83,4.62,4.62,0,0,1,1.6-1.18,4.84,4.84,0,0,1,2-.41A4.27,4.27,0,0,1,38,8.2a4,4,0,0,1,.91,1.19A3.29,3.29,0,0,1,39.28,10.88ZM37.51,11a2.28,2.28,0,0,0-.15-0.83,1.9,1.9,0,0,0-.46-0.69A2.3,2.3,0,0,0,36.11,9,3.08,3.08,0,0,0,35,8.79a2.79,2.79,0,0,0-1.2.25,3,3,0,0,0-.92.66,3.23,3.23,0,0,0-.6.92,2.84,2.84,0,0,0-.24,1l0,0.44,2.44,0q1,0,1.57-.08A3.88,3.88,0,0,0,37,11.79a0.78,0.78,0,0,0,.43-0.32A1,1,0,0,0,37.51,11Z"/>
      <path class="cls-1" d="M50,18.11a1,1,0,0,1-1.15-1.19V12a3.53,3.53,0,0,0-.64-2.4,2.72,2.72,0,0,0-2.09-.71,2.41,2.41,0,0,0-1.87.73A3.47,3.47,0,0,0,43.62,12v6.14H42.93a1.12,1.12,0,0,1-.82-0.3,1.27,1.27,0,0,1-.31-0.95V11.93a6,6,0,0,1,.32-2,4.1,4.1,0,0,1,.93-1.51,4,4,0,0,1,1.45-.94,5.23,5.23,0,0,1,1.87-.32A4.26,4.26,0,0,1,49.56,8.3a5,5,0,0,1,1.15,3.61v6.2H50Z"/>
      <path class="cls-1" d="M61.38,10.24a1.72,1.72,0,0,0-.44-0.56,3.1,3.1,0,0,0-.67-0.44,4.26,4.26,0,0,0-.81-0.29,3.31,3.31,0,0,0-.82-0.11,3.64,3.64,0,0,0-1.46.28,3.41,3.41,0,0,0-1.13.78,3.37,3.37,0,0,0-.73,1.18,4.33,4.33,0,0,0-.25,1.5,4.56,4.56,0,0,0,.33,1.83,3.88,3.88,0,0,0,.85,1.26,3.23,3.23,0,0,0,1.16.73,3.71,3.71,0,0,0,1.27.23,5,5,0,0,0,1.59-.24,2.36,2.36,0,0,0,1.11-.73h0.1v0.77a1.33,1.33,0,0,1-.16.58,1.86,1.86,0,0,1-.53.61,3.25,3.25,0,0,1-1,.49,4.59,4.59,0,0,1-1.46.2A4.78,4.78,0,0,1,56.6,18a5.32,5.32,0,0,1-1.67-1.06,5.48,5.48,0,0,1-1.23-1.71,5.41,5.41,0,0,1-.48-2.33,6.32,6.32,0,0,1,.38-2.19,5.69,5.69,0,0,1,1.07-1.82,5.05,5.05,0,0,1,3.87-1.71,4.21,4.21,0,0,1,1.14.15,3,3,0,0,1,.94.44,2.08,2.08,0,0,1,.63.73,2.16,2.16,0,0,1,.23,1v0.77h-0.1Z"/>
      <path class="cls-1" d="M73.55,12.51a8,8,0,0,1-.34,2.44,5.33,5.33,0,0,1-1,1.82,4.16,4.16,0,0,1-1.53,1.15,4.89,4.89,0,0,1-2,.39,5,5,0,0,1-2-.39,4.61,4.61,0,0,1-1.58-1.11,5.26,5.26,0,0,1-1-1.7,6,6,0,0,1-.38-2.2,7.62,7.62,0,0,1,.35-2.4,5.15,5.15,0,0,1,1-1.81,4.45,4.45,0,0,1,1.57-1.15,5.08,5.08,0,0,1,2.06-.4,5,5,0,0,1,2,.38,4.31,4.31,0,0,1,1.53,1.09,5,5,0,0,1,1,1.69A6.5,6.5,0,0,1,73.55,12.51Zm-1.85.42a4.73,4.73,0,0,0-.83-3,2.93,2.93,0,0,0-2.42-1,2.55,2.55,0,0,0-2.09,1,4.14,4.14,0,0,0-.79,2.67,4.62,4.62,0,0,0,.87,3,3,3,0,0,0,2.46,1.09,2.58,2.58,0,0,0,1.21-.27A2.49,2.49,0,0,0,71,15.55a3.48,3.48,0,0,0,.53-1.16A5.61,5.61,0,0,0,71.69,12.94Z"/>
      <path class="cls-1" d="M90.65,18.11a1.16,1.16,0,0,1-.87-0.35,1.37,1.37,0,0,1-.34-1V12a3.79,3.79,0,0,0-.6-2.42,2.1,2.1,0,0,0-1.71-.73,2.35,2.35,0,0,0-1.92.73,3.72,3.72,0,0,0-.59,2.36v6.16H84A1.14,1.14,0,0,1,83,17.76a1.56,1.56,0,0,1-.28-1V12a3.78,3.78,0,0,0-.62-2.31,2.1,2.1,0,0,0-1.79-.84,2.2,2.2,0,0,0-1.81.75,3.81,3.81,0,0,0-.6,2.4v6.1H77.33a1.27,1.27,0,0,1-.93-0.33,1.36,1.36,0,0,1-.34-1v-5A5.39,5.39,0,0,1,76.36,10a4.4,4.4,0,0,1,.85-1.48,4,4,0,0,1,1.37-1,4.49,4.49,0,0,1,1.88-.37,3.79,3.79,0,0,1,2,.5A3.7,3.7,0,0,1,83.8,9.09a4,4,0,0,1,1.42-1.42,3.77,3.77,0,0,1,2-.53,3.85,3.85,0,0,1,3.06,1.2,5.37,5.37,0,0,1,1,3.62v6.16H90.65Z"/>
      <path class="cls-1" d="M103.88,12.47a7.54,7.54,0,0,1-.37,2.47,5.53,5.53,0,0,1-1,1.83A4.39,4.39,0,0,1,101,17.92a4.6,4.6,0,0,1-1.9.39,3.18,3.18,0,0,1-.93-0.14,4.06,4.06,0,0,1-.88-0.38,3.54,3.54,0,0,1-.76-0.59,2.88,2.88,0,0,1-.54-0.78v5.12H95.28a1.18,1.18,0,0,1-.89-0.31,1.53,1.53,0,0,1-.3-1.08V13a6.6,6.6,0,0,1,1.29-4.31,4.71,4.71,0,0,1,3.87-1.57,4.1,4.1,0,0,1,1.72.38,4.57,4.57,0,0,1,1.48,1.09,5.49,5.49,0,0,1,1,1.69A5.83,5.83,0,0,1,103.88,12.47ZM102,13a6.72,6.72,0,0,0-.23-1.88,3.45,3.45,0,0,0-.65-1.28,2.55,2.55,0,0,0-1-.73,3.46,3.46,0,0,0-1.29-.23,2.58,2.58,0,0,0-2.19,1,4.29,4.29,0,0,0-.76,2.67,4.44,4.44,0,0,0,.93,3.1,3.14,3.14,0,0,0,2.42,1,2.46,2.46,0,0,0,2-.93A4.29,4.29,0,0,0,102,13Z"/>
      <path class="cls-1" d="M114.42,14.57a4.7,4.7,0,0,1-.23,1.51,3,3,0,0,1-.74,1.18,3.49,3.49,0,0,1-1.3.78,5.79,5.79,0,0,1-1.92.28,5.28,5.28,0,0,1-1.57-.23,4.42,4.42,0,0,1-1.31-.64,3.16,3.16,0,0,1-.9-1,2.58,2.58,0,0,1-.33-1.31,3.06,3.06,0,0,1,1.29-2.66,6.36,6.36,0,0,1,3.71-.91h1.45V11.06a2.15,2.15,0,0,0-.6-1.71A2.93,2.93,0,0,0,110,8.83a4.83,4.83,0,0,0-2.08.41,3.36,3.36,0,0,0-1.34,1.06h-0.1V9.41a1.5,1.5,0,0,1,.24-0.77,2.51,2.51,0,0,1,.71-0.74,4.14,4.14,0,0,1,1.16-.55,5.28,5.28,0,0,1,1.6-.22,4.31,4.31,0,0,1,3.13,1,4,4,0,0,1,1.06,3v3.38Zm-1.83-1.49h-1.47a4.63,4.63,0,0,0-2.39.47,1.53,1.53,0,0,0-.76,1.38,1.47,1.47,0,0,0,.63,1.2,2.66,2.66,0,0,0,1.68.49,2.49,2.49,0,0,0,1.76-.51,2.26,2.26,0,0,0,.53-1.68V13.08Z"/>
      <path class="cls-1" d="M124.51,14.85a3.38,3.38,0,0,1-.31,1.49,3.07,3.07,0,0,1-.88,1.09,3.86,3.86,0,0,1-1.33.66,6.08,6.08,0,0,1-1.69.22,5.18,5.18,0,0,1-1.28-.15,3.54,3.54,0,0,1-1-.43,2.23,2.23,0,0,1-.69-0.67,1.59,1.59,0,0,1-.25-0.88V15.39h0.1a3.67,3.67,0,0,0,1.31.87,4.85,4.85,0,0,0,1.9.36,3.12,3.12,0,0,0,1.76-.38,1.36,1.36,0,0,0,.55-1.19,1.54,1.54,0,0,0-.1-0.57,1,1,0,0,0-.4-0.45,3.6,3.6,0,0,0-.86-0.38q-0.56-.18-1.49-0.38a5.31,5.31,0,0,1-2.24-.92,2.2,2.2,0,0,1-.73-1.81,2.89,2.89,0,0,1,.29-1.27A3.37,3.37,0,0,1,118,8.17a4.1,4.1,0,0,1,1.34-.76,5.37,5.37,0,0,1,1.8-.28,5.17,5.17,0,0,1,1.17.13,3.42,3.42,0,0,1,1,.39,2.33,2.33,0,0,1,.71.64,1.46,1.46,0,0,1,.27.87V10h-0.1A2.94,2.94,0,0,0,123,9.21a4.44,4.44,0,0,0-1.75-.34,3.47,3.47,0,0,0-2,.42,1.31,1.31,0,0,0-.58,1.11,1.07,1.07,0,0,0,.1.48,0.91,0.91,0,0,0,.38.36,4.15,4.15,0,0,0,.8.32q0.51,0.16,1.36.34Q124.51,12.59,124.51,14.85Z"/>
      <path class="cls-1" d="M134.34,14.85a3.38,3.38,0,0,1-.31,1.49,3.06,3.06,0,0,1-.88,1.09,3.87,3.87,0,0,1-1.33.66,6.08,6.08,0,0,1-1.69.22,5.17,5.17,0,0,1-1.28-.15,3.53,3.53,0,0,1-1-.43,2.22,2.22,0,0,1-.69-0.67,1.59,1.59,0,0,1-.25-0.88V15.39H127a3.67,3.67,0,0,0,1.31.87,4.84,4.84,0,0,0,1.9.36,3.13,3.13,0,0,0,1.76-.38,1.36,1.36,0,0,0,.55-1.19,1.54,1.54,0,0,0-.1-0.57A1,1,0,0,0,132,14a3.6,3.6,0,0,0-.86-0.38q-0.56-.18-1.49-0.38a5.32,5.32,0,0,1-2.24-.92,2.2,2.2,0,0,1-.73-1.81A2.89,2.89,0,0,1,127,9.25a3.37,3.37,0,0,1,.84-1.08,4.11,4.11,0,0,1,1.34-.76,5.38,5.38,0,0,1,1.8-.28,5.16,5.16,0,0,1,1.17.13,3.41,3.41,0,0,1,1,.39,2.34,2.34,0,0,1,.71.64,1.46,1.46,0,0,1,.27.87V10H134a2.94,2.94,0,0,0-1.15-.77,4.44,4.44,0,0,0-1.75-.34,3.48,3.48,0,0,0-2,.42,1.31,1.31,0,0,0-.58,1.11,1.07,1.07,0,0,0,.1.48,0.91,0.91,0,0,0,.38.36,4.15,4.15,0,0,0,.8.32q0.51,0.16,1.36.34Q134.34,12.59,134.34,14.85Z"/>
    </g>
    <g>
      <circle class="cls-2" cx="13.02" cy="13.2" r="13.02"/>
      <path class="cls-3" d="M13,0.2l3.95,3.62L18,1.14A11.4,11.4,0,0,0,13,.2Z"/>
      <path class="cls-4" d="M16.93,3.82l1-2.68a14.67,14.67,0,0,1,4.2,2.76C20.93,3.92,16.93,3.82,16.93,3.82Z"/>
      <path class="cls-5" d="M25.08,8.07l-2.68,1L22.17,3.9A10.56,10.56,0,0,1,25.08,8.07Z"/>
      <path class="cls-6" d="M25.08,8.07l-2.68,1L26.07,13A12.09,12.09,0,0,0,25.08,8.07Z"/>
      <path class="cls-7" d="M26.07,13L22.43,16.5l3,1.11A14.26,14.26,0,0,0,26.07,13Z"/>
      <path class="cls-8" d="M22.43,16.5l0.05,5.7a11.84,11.84,0,0,0,2.91-4.58C25.44,17.59,22.43,16.5,22.43,16.5Z"/>
      <path class="cls-9" d="M22.59,22.06l-5.37.06,1.26,3A14.11,14.11,0,0,0,22.59,22.06Z"/>
      <path class="cls-10" d="M17.21,22.12l-4.08,4a11.27,11.27,0,0,0,5.33-1C18.42,24.85,17.21,22.12,17.21,22.12Z"/>
      <path class="cls-11" d="M13.2,26.2L9.47,21.92,7.75,25.11a12,12,0,0,0,5.37,1.1"/>
      <path class="cls-12" d="M9.47,21.92l-5.77.34a12.78,12.78,0,0,0,4,2.84C8,24.74,9.47,21.92,9.47,21.92Z"/>
      <path class="cls-13" d="M3.92,16.88L3.69,22.27a11.28,11.28,0,0,1-2.8-4.42Z"/>
      <path class="cls-14" d="M3.92,16.88l-3.85-4a11,11,0,0,0,.81,5C1.44,17.62,3.92,16.88,3.92,16.88Z"/>
      <path class="cls-15" d="M4,9.12L0.08,12.86A8.63,8.63,0,0,1,1.19,7.8C1.85,8.15,4,9.12,4,9.12Z"/>
      <path class="cls-16" d="M4,9.12L1.18,7.81A12.61,12.61,0,0,1,3.8,4C3.84,5.63,4,9.12,4,9.12Z"/>
      <path class="cls-17" d="M9.37,3.8L3.8,4A11.65,11.65,0,0,1,8.28,1C8.53,1.82,9.37,3.8,9.37,3.8Z"/>
      <path class="cls-18" d="M8.28,1L9.36,3.8,13,0.2A11.81,11.81,0,0,0,8.28,1Z"/>
      <polygon class="cls-19" points="13.02 0.18 9.37 3.8 13.11 5.77 16.93 3.82 13.02 0.18"/>
      <polygon class="cls-20" points="22.17 3.9 16.93 3.82 18.29 7.78 22.45 9.04 22.17 3.9"/>
      <polygon class="cls-21" points="22.45 9.04 20.48 12.88 22.43 16.5 26.07 12.96 22.45 9.04"/>
      <polygon class="cls-22" points="22.43 16.5 18.12 18.02 17.21 22.12 22.53 22.11 22.43 16.5"/>
      <polygon class="cls-23" points="17.21 22.12 12.88 20.05 9.47 21.92 13.18 26.22 17.21 22.12"/>
      <polygon class="cls-24" points="9.47 21.92 8 18.02 3.92 16.88 3.68 22.27 9.47 21.92"/>
      <polygon class="cls-25" points="5.92 12.76 3.92 16.88 0.08 12.86 3.97 9.11 5.92 12.76"/>
      <polygon class="cls-26" points="3.8 4.01 3.97 9.11 8.1 7.59 9.37 3.8 3.8 4.01"/>
      <polygon class="cls-27" points="8.1 7.59 13.11 5.77 9.37 3.8 8.1 7.59"/>
      <polygon class="cls-28" points="8.1 7.59 3.97 9.11 5.92 12.76 8.1 7.59"/>
      <polygon class="cls-29" points="5.92 12.76 8.04 18.05 3.93 16.87 5.92 12.76"/>
      <polygon class="cls-30" points="8 18.02 12.88 20.05 9.47 21.92 8 18.02"/>
      <polygon class="cls-31" points="18.12 18.02 12.88 20.05 17.21 22.12 18.12 18.02"/>
      <polygon class="cls-32" points="20.48 12.88 18.12 18.02 22.43 16.5 20.48 12.88"/>
      <polygon class="cls-33" points="20.48 12.88 18.28 7.77 22.48 9.06 20.48 12.88"/>
      <polygon class="cls-34" points="18.31 7.81 13.11 5.77 16.93 3.81 18.31 7.81"/>
      <polygon class="cls-35" points="13.11 5.77 8.1 7.59 5.92 12.76 8 18.02 12.88 20.05 18.12 18.02 20.48 12.88 18.32 7.81 13.11 5.77"/>
    </g>
  </g>
</svg>
